<svg id="visual" viewBox="0 0 1800 900" width="1800" height="900" xmlns="http://www.w3.org/2000/svg" xmlns:xlink="http://www.w3.org/1999/xlink" version="1.1"><path d="M0 82L27.3 98.5C54.7 115 109.3 148 163.8 163C218.3 178 272.7 175 327.2 169C381.7 163 436.3 154 491 134.5C545.7 115 600.3 85 654.8 77.5C709.3 70 763.7 85 818.2 89.5C872.7 94 927.3 88 981.8 82C1036.3 76 1090.7 70 1145.2 74.5C1199.7 79 1254.3 94 1309 98.5C1363.7 103 1418.3 97 1472.8 98.5C1527.3 100 1581.7 109 1636.2 109C1690.7 109 1745.3 100 1772.7 95.5L1800 91L1800 0L1772.7 0C1745.3 0 1690.7 0 1636.2 0C1581.7 0 1527.3 0 1472.8 0C1418.3 0 1363.7 0 1309 0C1254.3 0 1199.7 0 1145.2 0C1090.7 0 1036.3 0 981.8 0C927.3 0 872.7 0 818.2 0C763.7 0 709.3 0 654.8 0C600.3 0 545.7 0 491 0C436.3 0 381.7 0 327.2 0C272.7 0 218.3 0 163.8 0C109.3 0 54.7 0 27.3 0L0 0Z" fill="#6198ff"></path><path d="M0 523L27.3 502C54.7 481 109.3 439 163.8 409C218.3 379 272.7 361 327.2 349C381.7 337 436.3 331 491 334C545.7 337 600.3 349 654.8 334C709.3 319 763.7 277 818.2 286C872.7 295 927.3 355 981.8 350.5C1036.3 346 1090.7 277 1145.2 292C1199.7 307 1254.3 406 1309 452.5C1363.7 499 1418.3 493 1472.8 484C1527.3 475 1581.7 463 1636.2 461.5C1690.7 460 1745.3 469 1772.7 473.5L1800 478L1800 89L1772.7 93.5C1745.3 98 1690.7 107 1636.2 107C1581.7 107 1527.3 98 1472.8 96.5C1418.3 95 1363.7 101 1309 96.5C1254.3 92 1199.7 77 1145.2 72.5C1090.7 68 1036.3 74 981.8 80C927.3 86 872.7 92 818.2 87.5C763.7 83 709.3 68 654.8 75.5C600.3 83 545.7 113 491 132.5C436.3 152 381.7 161 327.2 167C272.7 173 218.3 176 163.8 161C109.3 146 54.7 113 27.3 96.5L0 80Z" fill="#3c80ff"></path><path d="M0 703L27.3 695.5C54.7 688 109.3 673 163.8 659.5C218.3 646 272.7 634 327.2 643C381.7 652 436.3 682 491 682C545.7 682 600.3 652 654.8 632.5C709.3 613 763.7 604 818.2 604C872.7 604 927.3 613 981.8 608.5C1036.3 604 1090.7 586 1145.2 592C1199.7 598 1254.3 628 1309 646C1363.7 664 1418.3 670 1472.8 653.5C1527.3 637 1581.7 598 1636.2 586C1690.7 574 1745.3 589 1772.7 596.5L1800 604L1800 476L1772.7 471.5C1745.3 467 1690.7 458 1636.2 459.5C1581.7 461 1527.3 473 1472.8 482C1418.3 491 1363.7 497 1309 450.5C1254.3 404 1199.7 305 1145.2 290C1090.7 275 1036.3 344 981.8 348.5C927.3 353 872.7 293 818.2 284C763.7 275 709.3 317 654.8 332C600.3 347 545.7 335 491 332C436.3 329 381.7 335 327.2 347C272.7 359 218.3 377 163.8 407C109.3 437 54.7 479 27.3 500L0 521Z" fill="#0066ff"></path><path d="M0 784L27.3 781C54.7 778 109.3 772 163.8 758.5C218.3 745 272.7 724 327.2 725.5C381.7 727 436.3 751 491 763C545.7 775 600.3 775 654.8 761.5C709.3 748 763.7 721 818.2 716.5C872.7 712 927.3 730 981.8 730C1036.3 730 1090.7 712 1145.2 722.5C1199.7 733 1254.3 772 1309 788.5C1363.7 805 1418.3 799 1472.8 781C1527.3 763 1581.7 733 1636.2 716.5C1690.7 700 1745.3 697 1772.7 695.5L1800 694L1800 602L1772.7 594.5C1745.3 587 1690.7 572 1636.2 584C1581.7 596 1527.3 635 1472.8 651.5C1418.3 668 1363.7 662 1309 644C1254.3 626 1199.7 596 1145.2 590C1090.7 584 1036.3 602 981.8 606.5C927.3 611 872.7 602 818.2 602C763.7 602 709.3 611 654.8 630.5C600.3 650 545.7 680 491 680C436.3 680 381.7 650 327.2 641C272.7 632 218.3 644 163.8 657.5C109.3 671 54.7 686 27.3 693.5L0 701Z" fill="#0059dd"></path><path d="M0 901L27.3 901C54.7 901 109.3 901 163.8 901C218.3 901 272.7 901 327.2 901C381.7 901 436.3 901 491 901C545.7 901 600.3 901 654.8 901C709.3 901 763.7 901 818.2 901C872.7 901 927.3 901 981.8 901C1036.3 901 1090.7 901 1145.2 901C1199.7 901 1254.3 901 1309 901C1363.7 901 1418.3 901 1472.8 901C1527.3 901 1581.7 901 1636.2 901C1690.7 901 1745.3 901 1772.7 901L1800 901L1800 692L1772.7 693.5C1745.3 695 1690.7 698 1636.2 714.5C1581.7 731 1527.3 761 1472.8 779C1418.3 797 1363.7 803 1309 786.5C1254.3 770 1199.7 731 1145.2 720.5C1090.7 710 1036.3 728 981.8 728C927.3 728 872.7 710 818.2 714.5C763.7 719 709.3 746 654.8 759.5C600.3 773 545.7 773 491 761C436.3 749 381.7 725 327.2 723.5C272.7 722 218.3 743 163.8 756.5C109.3 770 54.7 776 27.3 779L0 782Z" fill="#004cbb"></path></svg>